grf
version=1
nRows=7
nColumns=37
inDegrees=no
endheader
time	ground_force_1_vx	ground_force_1_vy	ground_force_1_vz	ground_force_1_px	ground_force_1_py	ground_force_1_pz	ground_moment_1_mx	ground_moment_1_my	ground_moment_1_mz	ground_force_2_vx	ground_force_2_vy	ground_force_2_vz	ground_force_2_px	ground_force_2_py	ground_force_2_pz	ground_moment_2_mx	ground_moment_2_my	ground_moment_2_mz	ground_force_3_vx	ground_force_3_vy	ground_force_3_vz	ground_force_3_px	ground_force_3_py	ground_force_3_pz	ground_moment_3_mx	ground_moment_3_my	ground_moment_3_mz	ground_force_4_vx	ground_force_4_vy	ground_force_4_vz	ground_force_4_px	ground_force_4_py	ground_force_4_pz	ground_moment_4_mx	ground_moment_4_my	ground_moment_4_mz
      1.89000000	      0.00000000	     -0.00000000	      0.00000000	      0.00000000	      0.00000000	      0.00000000	      0.00000000	      0.00000000	      0.00000000	      5.36056805	     74.40956879	   -455.40249634	   -342.19596641	  -1135.23552686	      0.00000000	      0.00000000	      0.00000000	   5127.59069487	     13.21127823	    -40.56134912	   -298.52856445	   -414.29345807	   -698.82552999	      0.00000000	      0.00000000	     -0.00000000	 -10604.46407786	      0.00000000	     -0.00000000	      0.00000000	      0.00000000	      0.00000000	      0.00000000	      0.00000000	      0.00000000	      0.00000000
      1.90000000	      0.00000000	     -0.00000000	      0.00000000	      0.00000000	      0.00000000	      0.00000000	      0.00000000	      0.00000000	      0.00000000	      4.08115768	     72.96298981	   -455.32604980	   -342.38305151	  -1133.98488994	      0.00000000	      0.00000000	      0.00000000	   5381.91884587	     13.69202271	    -39.26727415	   -294.62884521	   -414.98475901	   -700.45668088	      0.00000000	      0.00000000	     -0.00000000	 -10591.67444791	      0.00000000	     -0.00000000	      0.00000000	      0.00000000	      0.00000000	      0.00000000	      0.00000000	      0.00000000	      0.00000000
      1.91000000	      0.00000000	     -0.00000000	      0.00000000	      0.00000000	      0.00000000	      0.00000000	      0.00000000	      0.00000000	      0.00000000	      4.39733887	     71.65527344	   -455.75341797	   -343.18342631	  -1134.18686327	      0.00000000	      0.00000000	      0.00000000	   5570.67307967	     15.57004986	    -37.04960006	   -292.61541748	   -415.48799861	   -701.24227857	      0.00000000	      0.00000000	     -0.00000000	 -10638.96757763	      0.00000000	     -0.00000000	      0.00000000	      0.00000000	      0.00000000	      0.00000000	      0.00000000	      0.00000000	      0.00000000
      1.92000000	      0.00000000	     -0.00000000	      0.00000000	      0.00000000	      0.00000000	      0.00000000	      0.00000000	      0.00000000	      0.00000000	      4.80178976	     69.14424133	   -457.28219604	   -343.82245512	  -1133.87491103	      0.00000000	      0.00000000	      0.00000000	   5593.04469585	     17.51773330	    -35.81805573	   -293.60653687	   -413.50605503	   -701.25964305	      0.00000000	      0.00000000	     -0.00000000	 -10622.52704747	      0.00000000	     -0.00000000	      0.00000000	      0.00000000	      0.00000000	      0.00000000	      0.00000000	      0.00000000	      0.00000000
      1.93000000	      0.00000000	     -0.00000000	      0.00000000	      0.00000000	      0.00000000	      0.00000000	      0.00000000	      0.00000000	      0.00000000	      5.38041687	     66.88594818	   -464.71670532	   -344.71477965	  -1132.55172530	      0.00000000	      0.00000000	      0.00000000	   5711.25601975	     18.07604684	    -33.89086691	   -296.08032227	   -410.90613329	   -701.05237807	      0.00000000	      0.00000000	     -0.00000000	 -10335.40361065	      0.00000000	     -0.00000000	      0.00000000	      0.00000000	      0.00000000	      0.00000000	      0.00000000	      0.00000000	      0.00000000
      1.94000000	      0.00000000	     -0.00000000	      0.00000000	      0.00000000	      0.00000000	      0.00000000	      0.00000000	      0.00000000	      0.00000000	      7.22083426	     64.91438293	   -471.42211914	   -344.58599494	  -1133.08370306	      0.00000000	      0.00000000	      0.00000000	   5851.89220827	     18.09704501	    -31.98437467	   -297.99578857	   -407.47737568	   -699.21662607	      0.00000000	      0.00000000	     -0.00000000	 -10271.96606422	      0.00000000	     -0.00000000	      0.00000000	      0.00000000	      0.00000000	      0.00000000	      0.00000000	      0.00000000	      0.00000000
      1.95000000	      0.00000000	     -0.00000000	      0.00000000	      0.00000000	      0.00000000	      0.00000000	      0.00000000	      0.00000000	      0.00000000	      8.76787663	     63.96242905	   -471.33840942	   -345.42869132	  -1131.68905523	      0.00000000	      0.00000000	      0.00000000	   6076.46669879	     16.83789363	    -31.08070139	   -299.52896118	   -403.36530033	   -698.13955010	      0.00000000	      0.00000000	     -0.00000000	 -10170.60244619	      0.00000000	     -0.00000000	      0.00000000	      0.00000000	      0.00000000	      0.00000000	      0.00000000	      0.00000000	      0.00000000
